<svg xmlns="http://www.w3.org/2000/svg" xmlns:xlink="http://www.w3.org/1999/xlink" version="1.1" width="895" height="636" viewBox="0 0 895 636"><g><g transform="translate(12,0)"><g><g>
<g stroke="#000000" stroke-dasharray="none" fill="#FFFFFF">
    <path d="M11,0h41.9c5.9,0,11,4.8,11,10.9v111.2c0,5.9,-4.8,10.9,-11,10.9H11C5.1,133.1,0,128.3,0,122.2V10.9C0,4.8,4.8,0,11,0z"/>
    <path d="M23.5,8.7c0.6,0,1.1,0.3,1.1,1.1c0,0.5,-0.6,1.1,-1.1,1.1c-0.9,0,-1.4,-0.5,-1.4,-1.1C22.1,9,22.6,8.7,23.5,8.7"/>
    <path d="M40.4,8.7c0.6,0,1.1,0.5,1.1,1.1c0,0.5,-0.6,1.1,-1.1,1.1h-12.2c-0.6,0,-1.1,-0.5,-1.1,-1.1s0.6,-1.1,1.1,-1.1L40.4,8.7"/>
    <path d="M31.9,118.2c2.8,0,5.1,2.2,5.1,5s-2.2,5,-5.1,5s-5.1,-2.2,-5.1,-5C26.9,120.5,29.1,118.2,31.9,118.2z"/>
    <path d="M4.2,113.5V18.5h55.1v95H4.2L4.2,113.5z"/>
</g>
<rect x="7.8" y="26.1" width="48.3" height="80.5" fill="none"/>
<circle fill="none" cx="32" cy="0" r="0.1"/>
<circle fill="none" cx="47.6" cy="0" r="0.1"/>
<circle fill="none" cx="63.9" cy="33.6" r="0.1"/>
<circle fill="none" cx="63.9" cy="66.5" r="0.1"/>
<circle fill="none" cx="63.9" cy="99.5" r="0.1"/>
<circle fill="none" cx="47.6" cy="133.1" r="0.1"/>
<circle fill="none" cx="32" cy="133.1" r="0.1"/>
<circle fill="none" cx="16.3" cy="133.1" r="0.1"/>
<circle fill="none" cx="0" cy="99.5" r="0.1"/>
<circle fill="none" cx="0" cy="66.5" r="0.1"/>
<circle fill="none" cx="0" cy="33.6" r="0.1"/>
<circle fill="none" cx="16.3" cy="0" r="0.1"/>
</g></g><rect stroke="none" stroke-width="0" fill="#FFFFFF" x="0" y="0" width="0" height="0" transform="translate(63.8,66.4)"/><path stroke="#000000" fill="none" d=""/><text font-family="OpenSansCondensedLight" font-size="14pt" fill="black" transform="translate(63.8,66.4)"/><rect stroke-width="0" fill="none" width="48.3" height="80.5" transform="translate(7.8,26.1)"/><text font-family="OpenSansCondensedLight" font-size="14pt" fill="black" transform="translate(7.8,26.1)" text-anchor="middle"><tspan x="24.2" y="15.1">MOBILE</tspan><tspan x="24.2" y="36.1">DEVICE</tspan><tspan x="24.2" y="57.1">A</tspan><tspan x="24.2" y="78.1">102</tspan></text><path stroke="#000000" fill="none" transform="translate(7.8,26.1)" d="M 10.2 80 38.2 80"/></g><g transform="translate(282,0)"><g><g>
<path d="M94.5,0H0v94.5h94.5V0L94.5,0z" stroke="#000000" stroke-dasharray="none" fill="#FFFFFF"/>
<rect x="4.1" y="4.3" width="86.2" height="85.9" fill="none"/>
<circle fill="none" cx="47.2" cy="0" r="0.1"/>
<circle fill="none" cx="70.7" cy="0" r="0.1"/>
<circle fill="none" cx="94.5" cy="23.8" r="0.1"/>
<circle fill="none" cx="94.5" cy="47.2" r="0.1"/>
<circle fill="none" cx="94.5" cy="70.7" r="0.1"/>
<circle fill="none" cx="70.7" cy="94.5" r="0.1"/>
<circle fill="none" cx="47.2" cy="94.5" r="0.1"/>
<circle fill="none" cx="23.8" cy="94.5" r="0.1"/>
<circle fill="none" cx="0" cy="70.7" r="0.1"/>
<circle fill="none" cx="0" cy="47.2" r="0.1"/>
<circle fill="none" cx="0" cy="23.8" r="0.1"/>
<circle fill="none" cx="23.8" cy="0" r="0.1"/>
</g></g><rect stroke="none" stroke-width="0" fill="#FFFFFF" x="0" y="0" width="0" height="0" transform="translate(94.4,47.1)"/><path stroke="#000000" fill="none" d=""/><text font-family="OpenSansCondensedLight" font-size="14pt" fill="black" transform="translate(94.4,47.1)"/><rect stroke-width="0" fill="none" width="86.2" height="85.9" transform="translate(4.1,4.3)"/><text font-family="OpenSansCondensedLight" font-size="14pt" fill="black" transform="translate(4.1,4.3)" text-anchor="middle"><tspan x="43.1" y="17.7">CONNECTION</tspan><tspan x="43.1" y="38.7">DATA</tspan><tspan x="43.1" y="59.7">EXCHANGE</tspan><tspan x="43.1" y="80.7">104</tspan></text><path stroke="#000000" fill="none" transform="translate(4.1,4.3)" d="M 29.1 83 57.1 83"/></g><g transform="translate(577,0)"><g><g>
<g stroke="#000000" stroke-dasharray="none" fill="#FFFFFF">
    <path d="M11,0h41.9c5.9,0,11,4.8,11,10.9v111.2c0,5.9,-4.8,10.9,-11,10.9H11C5.1,133.1,0,128.3,0,122.2V10.9C0,4.8,4.8,0,11,0z"/>
    <path d="M23.5,8.7c0.6,0,1.1,0.3,1.1,1.1c0,0.5,-0.6,1.1,-1.1,1.1c-0.9,0,-1.4,-0.5,-1.4,-1.1C22.1,9,22.6,8.7,23.5,8.7"/>
    <path d="M40.4,8.7c0.6,0,1.1,0.5,1.1,1.1c0,0.5,-0.6,1.1,-1.1,1.1h-12.2c-0.6,0,-1.1,-0.5,-1.1,-1.1s0.6,-1.1,1.1,-1.1L40.4,8.7"/>
    <path d="M31.9,118.2c2.8,0,5.1,2.2,5.1,5s-2.2,5,-5.1,5s-5.1,-2.2,-5.1,-5C26.9,120.5,29.1,118.2,31.9,118.2z"/>
    <path d="M4.2,113.5V18.5h55.1v95H4.2L4.2,113.5z"/>
</g>
<rect x="7.8" y="26.1" width="48.3" height="80.5" fill="none"/>
<circle fill="none" cx="32" cy="0" r="0.1"/>
<circle fill="none" cx="47.6" cy="0" r="0.1"/>
<circle fill="none" cx="63.9" cy="33.6" r="0.1"/>
<circle fill="none" cx="63.9" cy="66.5" r="0.1"/>
<circle fill="none" cx="63.9" cy="99.5" r="0.1"/>
<circle fill="none" cx="47.6" cy="133.1" r="0.1"/>
<circle fill="none" cx="32" cy="133.1" r="0.1"/>
<circle fill="none" cx="16.3" cy="133.1" r="0.1"/>
<circle fill="none" cx="0" cy="99.5" r="0.1"/>
<circle fill="none" cx="0" cy="66.5" r="0.1"/>
<circle fill="none" cx="0" cy="33.6" r="0.1"/>
<circle fill="none" cx="16.3" cy="0" r="0.1"/>
</g></g><rect stroke="none" stroke-width="0" fill="#FFFFFF" x="0" y="0" width="0" height="0" transform="translate(63.8,66.4)"/><path stroke="#000000" fill="none" d=""/><text font-family="OpenSansCondensedLight" font-size="14pt" fill="black" transform="translate(63.8,66.4)"/><rect stroke-width="0" fill="none" width="48.3" height="80.5" transform="translate(7.8,26.1)"/><text font-family="OpenSansCondensedLight" font-size="14pt" fill="black" transform="translate(7.8,26.1)" text-anchor="middle"><tspan x="24.2" y="15.1">MOBILE</tspan><tspan x="24.2" y="36.1">DEVICE</tspan><tspan x="24.2" y="57.1">B</tspan><tspan x="24.2" y="78.1">106</tspan></text><path stroke="#000000" fill="none" transform="translate(7.8,26.1)" d="M 10.2 80 38.2 80"/></g><g transform="translate(800.5,0)"><g><g>
<path d="M94.5,0H0v94.5h94.5V0L94.5,0z" stroke="#000000" stroke-dasharray="none" fill="#FFFFFF"/>
<rect x="4.1" y="4.3" width="86.2" height="85.9" fill="none"/>
<circle fill="none" cx="47.2" cy="0" r="0.1"/>
<circle fill="none" cx="70.7" cy="0" r="0.1"/>
<circle fill="none" cx="94.5" cy="23.8" r="0.1"/>
<circle fill="none" cx="94.5" cy="47.2" r="0.1"/>
<circle fill="none" cx="94.5" cy="70.7" r="0.1"/>
<circle fill="none" cx="70.7" cy="94.5" r="0.1"/>
<circle fill="none" cx="47.2" cy="94.5" r="0.1"/>
<circle fill="none" cx="23.8" cy="94.5" r="0.1"/>
<circle fill="none" cx="0" cy="70.7" r="0.1"/>
<circle fill="none" cx="0" cy="47.2" r="0.1"/>
<circle fill="none" cx="0" cy="23.8" r="0.1"/>
<circle fill="none" cx="23.8" cy="0" r="0.1"/>
</g></g><rect stroke="none" stroke-width="0" fill="#FFFFFF" x="0" y="0" width="0" height="0" transform="translate(94.4,47.1)"/><path stroke="#000000" fill="none" d=""/><text font-family="OpenSansCondensedLight" font-size="14pt" fill="black" transform="translate(94.4,47.1)"/><rect stroke-width="0" fill="none" width="86.2" height="85.9" transform="translate(4.1,4.3)"/><text font-family="OpenSansCondensedLight" font-size="14pt" fill="black" transform="translate(4.1,4.3)" text-anchor="middle"><tspan x="43.1" y="28.2">MATCHMAKER</tspan><tspan x="43.1" y="49.2">SERVICE</tspan><tspan x="43.1" y="70.2">108</tspan></text><path stroke="#000000" fill="none" transform="translate(4.1,4.3)" d="M 29.1 72 57.1 72"/></g><g transform="translate(43,134)"><g><g>
<g fill="#FFFFFF">
    <rect width="2" height="501"/>
</g>
<g stroke="#000000" stroke-dasharray="none">
    <line fill="none" stroke-linejoin="round" x1="0" y1="0" x2="0" y2="501"/>
</g>
<rect fill="none" width="2" height="501"/>
<circle fill="none" cx="0" cy="60.4" r="0.1"/>
<circle fill="none" cx="0" cy="145.1" r="0.1"/>
<circle fill="none" cx="0" cy="229.4" r="0.1"/>
<circle fill="none" cx="0" cy="313.7" r="0.1"/>
<circle fill="none" cx="0" cy="398.1" r="0.1"/>
<circle fill="none" cx="0" cy="482.4" r="0.1"/>
<circle fill="none" cx="0" cy="440.2" r="0.1"/>
<circle fill="none" cx="0" cy="355.9" r="0.1"/>
<circle fill="none" cx="0" cy="271.6" r="0.1"/>
<circle fill="none" cx="0" cy="187.3" r="0.1"/>
<circle fill="none" cx="0" cy="102.6" r="0.1"/>
<circle fill="none" cx="0" cy="18.6" r="0.1"/>
</g></g><rect stroke="none" stroke-width="0" fill="#FFFFFF" x="0" y="0" width="0" height="0" transform="translate(-0.1,187.2)"/><path stroke="#000000" fill="none" d=""/><text font-family="OpenSansCondensedLight" font-size="14pt" fill="black" transform="translate(-0.1,187.2)"/><rect stroke-width="0" fill="none" width="2" height="501" transform="translate(0,0)"/><text font-family="OpenSansCondensedLight" font-size="14pt" fill="black" transform="translate(0,0)" text-anchor="middle"><tspan x="1" y="256.8"> </tspan></text><path stroke="#000000" fill="none" transform="translate(0,0)" d="M 0 0"/></g><g transform="translate(608,135)"><g><g>
<g fill="#FFFFFF">
    <rect width="2" height="501"/>
</g>
<g stroke="#000000" stroke-dasharray="none">
    <line fill="none" stroke-linejoin="round" x1="0" y1="0" x2="0" y2="501"/>
</g>
<rect fill="none" width="2" height="501"/>
<circle fill="none" cx="0" cy="60.4" r="0.1"/>
<circle fill="none" cx="0" cy="145.1" r="0.1"/>
<circle fill="none" cx="0" cy="229.4" r="0.1"/>
<circle fill="none" cx="0" cy="313.7" r="0.1"/>
<circle fill="none" cx="0" cy="398.1" r="0.1"/>
<circle fill="none" cx="0" cy="482.4" r="0.1"/>
<circle fill="none" cx="0" cy="440.2" r="0.1"/>
<circle fill="none" cx="0" cy="355.9" r="0.1"/>
<circle fill="none" cx="0" cy="271.6" r="0.1"/>
<circle fill="none" cx="0" cy="187.3" r="0.1"/>
<circle fill="none" cx="0" cy="102.6" r="0.1"/>
<circle fill="none" cx="0" cy="18.6" r="0.1"/>
</g></g><rect stroke="none" stroke-width="0" fill="#FFFFFF" x="0" y="0" width="0" height="0" transform="translate(-0.1,187.2)"/><path stroke="#000000" fill="none" d=""/><text font-family="OpenSansCondensedLight" font-size="14pt" fill="black" transform="translate(-0.1,187.2)"/><rect stroke-width="0" fill="none" width="2" height="501" transform="translate(0,0)"/><text font-family="OpenSansCondensedLight" font-size="14pt" fill="black" transform="translate(0,0)" text-anchor="middle"><tspan x="1" y="256.8"> </tspan></text><path stroke="#000000" fill="none" transform="translate(0,0)" d="M 0 0"/></g><g transform="translate(852,95)"><g><g>
<g fill="#FFFFFF">
    <rect width="2" height="540"/>
</g>
<g stroke="#000000" stroke-dasharray="none">
    <line fill="none" stroke-linejoin="round" x1="0" y1="0" x2="0" y2="540"/>
</g>
<rect fill="none" width="2" height="540"/>
<circle fill="none" cx="0" cy="65.1" r="0.1"/>
<circle fill="none" cx="0" cy="156.4" r="0.1"/>
<circle fill="none" cx="0" cy="247.3" r="0.1"/>
<circle fill="none" cx="0" cy="338.1" r="0.1"/>
<circle fill="none" cx="0" cy="429" r="0.1"/>
<circle fill="none" cx="0" cy="519.9" r="0.1"/>
<circle fill="none" cx="0" cy="474.4" r="0.1"/>
<circle fill="none" cx="0" cy="383.6" r="0.1"/>
<circle fill="none" cx="0" cy="292.7" r="0.1"/>
<circle fill="none" cx="0" cy="201.9" r="0.1"/>
<circle fill="none" cx="0" cy="110.6" r="0.1"/>
<circle fill="none" cx="0" cy="20.1" r="0.1"/>
</g></g><rect stroke="none" stroke-width="0" fill="#FFFFFF" x="0" y="0" width="0" height="0" transform="translate(-0.1,201.8)"/><path stroke="#000000" fill="none" d=""/><text font-family="OpenSansCondensedLight" font-size="14pt" fill="black" transform="translate(-0.1,201.8)"/><rect stroke-width="0" fill="none" width="2" height="540" transform="translate(0,0)"/><text font-family="OpenSansCondensedLight" font-size="14pt" fill="black" transform="translate(0,0)" text-anchor="middle"><tspan x="1" y="276.3"> </tspan></text><path stroke="#000000" fill="none" transform="translate(0,0)" d="M 0 0"/></g><g transform="translate(328,96)"><g><g>
<g fill="#FFFFFF">
    <rect width="2" height="540"/>
</g>
<g stroke="#000000" stroke-dasharray="none">
    <line fill="none" stroke-linejoin="round" x1="0" y1="0" x2="0" y2="540"/>
</g>
<rect fill="none" width="2" height="540"/>
<circle fill="none" cx="0" cy="65.1" r="0.1"/>
<circle fill="none" cx="0" cy="156.4" r="0.1"/>
<circle fill="none" cx="0" cy="247.3" r="0.1"/>
<circle fill="none" cx="0" cy="338.1" r="0.1"/>
<circle fill="none" cx="0" cy="429" r="0.1"/>
<circle fill="none" cx="0" cy="519.9" r="0.1"/>
<circle fill="none" cx="0" cy="474.4" r="0.1"/>
<circle fill="none" cx="0" cy="383.6" r="0.1"/>
<circle fill="none" cx="0" cy="292.7" r="0.1"/>
<circle fill="none" cx="0" cy="201.9" r="0.1"/>
<circle fill="none" cx="0" cy="110.6" r="0.1"/>
<circle fill="none" cx="0" cy="20.1" r="0.1"/>
</g></g><rect stroke="none" stroke-width="0" fill="#FFFFFF" x="0" y="0" width="0" height="0" transform="translate(-0.1,201.8)"/><path stroke="#000000" fill="none" d=""/><text font-family="OpenSansCondensedLight" font-size="14pt" fill="black" transform="translate(-0.1,201.8)"/><rect stroke-width="0" fill="none" width="2" height="540" transform="translate(0,0)"/><text font-family="OpenSansCondensedLight" font-size="14pt" fill="black" transform="translate(0,0)" text-anchor="middle"><tspan x="1" y="276.3"> </tspan></text><path stroke="#000000" fill="none" transform="translate(0,0)" d="M 0 0"/></g><g><path stroke="black" stroke-dasharray="none" d="M 42 161 320 161" fill="none"/><path fill="black" stroke="black" d="" transform="translate(42,161) scale(1,1) rotate(0)"/><path fill="black" stroke="black" d="M 8 0 L 0 4 L 8 8 z" transform="translate(328,165) scale(1,1) rotate(-180)"/><g><g label-idx="0" cursor="move" transform="translate(181, 161)"><rect fill="white" rx="3" ry="3" x="-146.2" y="-13.1" width="292.4" height="22"/><text text-anchor="start" font-size="14pt" font-family="OpenSansCondensedLight" y="0.8em" display="null" xml:space="preserve" transform="translate(0,-11)"><tspan x="-136.8" y="0.8em">NAT TRAVERSAL REQUEST</tspan><tspan x="109.6" y="0.8em" text-decoration="underline">110</tspan></text></g></g></g><g><path stroke="black" stroke-dasharray="none" d="M 328 203 51 203" fill="none"/><path fill="black" stroke="black" d="" transform="translate(328,203) scale(1,1) rotate(-180)"/><path fill="black" stroke="black" d="M 8 0 L 0 4 L 8 8 z" transform="translate(43,199) scale(1,1) rotate(0)"/><g><g label-idx="0" cursor="move" transform="translate(189.5, 203)"><rect fill="white" rx="3" ry="3" x="-150.9" y="-13.1" width="301.7" height="22"/><text text-anchor="start" font-size="14pt" font-family="OpenSansCondensedLight" y="0.8em" display="null" xml:space="preserve" transform="translate(0,-11)"><tspan x="-141.5" y="0.8em">NAT TRAVERSAL RESPONSE</tspan><tspan x="114.2" y="0.8em" text-decoration="underline">112</tspan></text></g></g></g><g><path stroke="black" stroke-dasharray="5,5" d="M 608 154 L 340 154" fill="none"/><path fill="black" stroke="black" d="" transform="translate(608,154) scale(1,1) rotate(-180)"/><path fill="black" stroke="black" d="M 8 0 L 0 4 L 8 8 z" transform="translate(332,150) scale(1,1) rotate(0)"/><g><g label-idx="0" cursor="move" transform="translate(474, 154)"><rect fill="white" rx="3" ry="3" x="-146.2" y="-13.1" width="292.4" height="22"/><text text-anchor="start" font-size="14pt" font-family="OpenSansCondensedLight" y="0.8em" display="null" xml:space="preserve" transform="translate(0,-11)"><tspan x="-136.8" y="0.8em">NAT TRAVERSAL REQUEST</tspan><tspan x="109.6" y="0.8em" text-decoration="underline">114</tspan></text></g></g></g><g><path stroke="black" stroke-dasharray="5,5" d="M 328 203 599 203" fill="none"/><path fill="black" stroke="black" d="" transform="translate(328,203) scale(1,1) rotate(0)"/><path fill="black" stroke="black" d="M 8 0 L 0 4 L 8 8 z" transform="translate(607,207) scale(1,1) rotate(-180)"/><g><g label-idx="0" cursor="move" transform="translate(463.5, 203)"><rect fill="white" rx="3" ry="3" x="-150.9" y="-13.1" width="301.7" height="22"/><text text-anchor="start" font-size="14pt" font-family="OpenSansCondensedLight" y="0.8em" display="null" xml:space="preserve" transform="translate(0,-11)"><tspan x="-141.5" y="0.8em">NAT TRAVERSAL RESPONSE</tspan><tspan x="114.2" y="0.8em" text-decoration="underline">118</tspan></text></g></g></g><g><path stroke="black" stroke-dasharray="none" d="M 43 236 843 236" fill="none"/><path fill="black" stroke="black" d="" transform="translate(43,236) scale(1,1) rotate(0)"/><path fill="black" stroke="black" d="M 8 0 L 0 4 L 8 8 z" transform="translate(851,240) scale(1,1) rotate(-180)"/><g><g label-idx="0" cursor="move" transform="translate(443, 236)"><rect fill="white" rx="3" ry="3" x="-104.6" y="-13.1" width="209.3" height="22"/><text text-anchor="start" font-size="14pt" font-family="OpenSansCondensedLight" y="0.8em" display="null" xml:space="preserve" transform="translate(0,-11)"><tspan x="-95.3" y="0.8em">MATCH REQUEST</tspan><tspan x="68" y="0.8em" text-decoration="underline">116</tspan></text></g></g></g><g><path stroke="black" stroke-dasharray="5,5" d="M 608 277 843 277" fill="none"/><path fill="black" stroke="black" d="" transform="translate(608,277) scale(1,1) rotate(0)"/><path fill="black" stroke="black" d="M 8 0 L 0 4 L 8 8 z" transform="translate(851,281) scale(1,1) rotate(-180)"/><g><g label-idx="0" cursor="move" transform="translate(725.5, 277)"><rect fill="white" rx="3" ry="3" x="-105" y="-13.1" width="209.9" height="22"/><text text-anchor="start" font-size="14pt" font-family="OpenSansCondensedLight" y="0.8em" display="null" xml:space="preserve" transform="translate(0,-11)"><tspan x="-95.6" y="0.8em">MATCH REQUEST</tspan><tspan x="67.7" y="0.8em" text-decoration="underline">120</tspan></text></g></g></g><g><path stroke="black" stroke-dasharray="none" d="M 851 297 54 297" fill="none"/><path fill="black" stroke="black" d="" transform="translate(851,297) scale(1,1) rotate(-180)"/><path fill="black" stroke="black" d="M 8 0 L 0 4 L 8 8 z" transform="translate(46,293) scale(1,1) rotate(0)"/><g><g label-idx="0" cursor="move" transform="translate(452.5, 297)"><rect fill="white" rx="3" ry="3" x="-70.2" y="-13.1" width="140.4" height="22"/><text text-anchor="start" font-size="14pt" font-family="OpenSansCondensedLight" y="0.8em" display="null" xml:space="preserve" transform="translate(0,-11)"><tspan x="-60.9" y="0.8em">TICKET A</tspan><tspan x="32.9" y="0.8em" text-decoration="underline">122</tspan></text></g></g></g><g><path stroke="black" stroke-dasharray="5,5" d="M 853 325 617 325" fill="none"/><path fill="black" stroke="black" d="" transform="translate(853,325) scale(1,1) rotate(-180)"/><path fill="black" stroke="black" d="M 8 0 L 0 4 L 8 8 z" transform="translate(609,321) scale(1,1) rotate(0)"/><g><g label-idx="0" cursor="move" transform="translate(735, 325)"><rect fill="white" rx="3" ry="3" x="-69.7" y="-13.1" width="139.4" height="22"/><text text-anchor="start" font-size="14pt" font-family="OpenSansCondensedLight" y="0.8em" display="null" xml:space="preserve" transform="translate(0,-11)"><tspan x="-60.4" y="0.8em">TICKET B</tspan><tspan x="32.4" y="0.8em" text-decoration="underline">124</tspan></text></g></g></g><g><path stroke="black" stroke-dasharray="none" d="M 43 337 320 343" fill="none"/><path fill="black" stroke="black" d="" transform="translate(43,337) scale(1,1) rotate(1.2)"/><path fill="black" stroke="black" d="M 8 0 L 0 4 L 8 8 z" transform="translate(327.9,347) scale(1,1) rotate(-178.8)"/><g><g label-idx="0" cursor="move" transform="translate(181.5, 340)"><rect fill="white" rx="3" ry="3" x="-186.3" y="-13.1" width="372.7" height="22"/><text text-anchor="start" font-size="14pt" font-family="OpenSansCondensedLight" y="0.8em" display="null" xml:space="preserve" transform="translate(0,-11)"><tspan x="-177" y="0.8em">TICKET A WITH CONNECTION DATA</tspan><tspan x="149" y="0.8em" text-decoration="underline">126</tspan></text></g></g></g><g><path stroke="black" stroke-dasharray="none" d="M 328 361 C 309.5 368.8 291 376.7 290 382 C 289 387.3 305.5 390.2 322 393" fill="none"/><path fill="black" stroke="black" d="" transform="translate(328,361) scale(1,1) rotate(-208.9)"/><path fill="black" stroke="black" d="M 8 0 L 0 4 L 8 8 z" transform="translate(328.7,399.8) scale(1,1) rotate(-160.7)"/><g><g label-idx="0" cursor="move" transform="translate(292.5, 378.5)"><rect fill="white" rx="3" ry="3" x="0" y="0" width="0" height="0"/><text text-anchor="middle" font-size="14pt" font-family="OpenSansCondensedLight" y="0.8em" display="none" xml:space="preserve" transform="translate(0,0)"/></g></g></g><g transform="translate(82,371)"><g><g>
<path d="M241,0H0v24h241V0L241,0z" fill="none" stroke="none" stroke-dasharray="none"/>
<rect x="10.5" y="1.1" width="219.9" height="21.8" fill="none"/>
<circle fill="none" cx="120.5" cy="0" r="0.1"/>
<circle fill="none" cx="180.2" cy="0" r="0.1"/>
<circle fill="none" cx="241" cy="6.1" r="0.1"/>
<circle fill="none" cx="241" cy="12" r="0.1"/>
<circle fill="none" cx="241" cy="17.9" r="0.1"/>
<circle fill="none" cx="180.2" cy="24" r="0.1"/>
<circle fill="none" cx="120.5" cy="24" r="0.1"/>
<circle fill="none" cx="60.8" cy="24" r="0.1"/>
<circle fill="none" cx="0" cy="17.9" r="0.1"/>
<circle fill="none" cx="0" cy="12" r="0.1"/>
<circle fill="none" cx="0" cy="6.1" r="0.1"/>
<circle fill="none" cx="60.8" cy="0" r="0.1"/>
</g></g><rect stroke="none" stroke-width="0" fill="#FFFFFF" x="0" y="0" width="0" height="0" transform="translate(240.9,11.9)"/><path stroke="#000000" fill="none" d=""/><text font-family="OpenSansCondensedLight" font-size="14pt" fill="black" transform="translate(240.9,11.9)"/><rect stroke-width="0" fill="none" width="219.9" height="21.8" transform="translate(10.5,1.1)"/><text font-family="OpenSansCondensedLight" font-size="14pt" fill="black" transform="translate(10.5,1.1)" text-anchor="middle"><tspan x="110" y="6.7">AUTHENTICATE TICKET</tspan><tspan x="110" y="27.7">A 128</tspan></text><path stroke="#000000" fill="none" transform="translate(10.5,1.1)" d="M 105 30 133 30"/></g><g><path stroke="black" d="M 328 392 598 392" fill="none"/><path fill="black" stroke="black" d="" transform="translate(328,392) scale(1,1) rotate(0)"/><path fill="black" stroke="black" d="M 8 0 L 0 4 L 8 8 z" transform="translate(606,396) scale(1,1) rotate(-180)"/><g><g label-idx="0" cursor="move" transform="translate(463, 392)"><rect fill="white" rx="3" ry="3" x="-115.1" y="-13.1" width="230.2" height="22"/><text text-anchor="start" font-size="14pt" font-family="OpenSansCondensedLight" y="0.8em" display="null" xml:space="preserve" transform="translate(0,-11)"><tspan x="-105.8" y="0.8em">CONNECTION DATA</tspan><tspan x="77.8" y="0.8em" text-decoration="underline">130</tspan></text></g></g></g><g transform="translate(77,476)"><g><g>
<path d="M241,0H0v24h241V0L241,0z" fill="none" stroke="none" stroke-dasharray="none"/>
<rect x="10.5" y="1.1" width="219.9" height="21.8" fill="none"/>
<circle fill="none" cx="120.5" cy="0" r="0.1"/>
<circle fill="none" cx="180.2" cy="0" r="0.1"/>
<circle fill="none" cx="241" cy="6.1" r="0.1"/>
<circle fill="none" cx="241" cy="12" r="0.1"/>
<circle fill="none" cx="241" cy="17.9" r="0.1"/>
<circle fill="none" cx="180.2" cy="24" r="0.1"/>
<circle fill="none" cx="120.5" cy="24" r="0.1"/>
<circle fill="none" cx="60.8" cy="24" r="0.1"/>
<circle fill="none" cx="0" cy="17.9" r="0.1"/>
<circle fill="none" cx="0" cy="12" r="0.1"/>
<circle fill="none" cx="0" cy="6.1" r="0.1"/>
<circle fill="none" cx="60.8" cy="0" r="0.1"/>
</g></g><rect stroke="none" stroke-width="0" fill="#FFFFFF" x="0" y="0" width="0" height="0" transform="translate(240.9,11.9)"/><path stroke="#000000" fill="none" d=""/><text font-family="OpenSansCondensedLight" font-size="14pt" fill="black" transform="translate(240.9,11.9)"/><rect stroke-width="0" fill="none" width="219.9" height="21.8" transform="translate(10.5,1.1)"/><text font-family="OpenSansCondensedLight" font-size="14pt" fill="black" transform="translate(10.5,1.1)" text-anchor="middle"><tspan x="110" y="6.7">AUTHENTICATE TICKET</tspan><tspan x="110" y="27.7">B 136</tspan></text><path stroke="#000000" fill="none" transform="translate(10.5,1.1)" d="M 104.5 30 132.5 30"/></g><g><path stroke="black" d="M 609 426 336 426" fill="none"/><path fill="black" stroke="black" d="" transform="translate(609,426) scale(1,1) rotate(-180)"/><path fill="black" stroke="black" d="M 8 0 L 0 4 L 8 8 z" transform="translate(328,422) scale(1,1) rotate(0)"/><g><g label-idx="0" cursor="move" transform="translate(472.5, 426)"><rect fill="white" rx="3" ry="3" x="-47.7" y="-13.1" width="95.4" height="22"/><text text-anchor="start" font-size="14pt" font-family="OpenSansCondensedLight" y="0.8em" display="null" xml:space="preserve" transform="translate(0,-11)"><tspan x="-38.4" y="0.8em">ACK</tspan><tspan x="10.4" y="0.8em" text-decoration="underline">132</tspan></text></g></g></g><g><path stroke="black" d="M 329 444 49 444" fill="none"/><path fill="black" stroke="black" d="" transform="translate(329,444) scale(1,1) rotate(-180)"/><path fill="black" stroke="black" d="M 8 0 L 0 4 L 8 8 z" transform="translate(41,440) scale(1,1) rotate(0)"/><g><g label-idx="0" cursor="move" transform="translate(189, 444)"><rect fill="white" rx="3" ry="3" x="-47.7" y="-13.1" width="95.4" height="22"/><text text-anchor="start" font-size="14pt" font-family="OpenSansCondensedLight" y="0.8em" display="null" xml:space="preserve" transform="translate(0,-11)"><tspan x="-38.4" y="0.8em">ACK</tspan><tspan x="10.4" y="0.8em" text-decoration="underline">134</tspan></text></g></g></g><g><path stroke="black" stroke-dasharray="5,5" d="M 609 465 335 465" fill="none"/><path fill="black" stroke="black" d="" transform="translate(609,465) scale(1,1) rotate(-180)"/><path fill="black" stroke="black" d="M 8 0 L 0 4 L 8 8 z" transform="translate(327,461) scale(1,1) rotate(0)"/><g><g label-idx="0" cursor="move" transform="translate(472, 465)"><rect fill="white" rx="3" ry="3" x="-185.8" y="-13.1" width="371.7" height="22"/><text text-anchor="start" font-size="14pt" font-family="OpenSansCondensedLight" y="0.8em" display="null" xml:space="preserve" transform="translate(0,-11)"><tspan x="-176.5" y="0.8em">TICKET B WITH CONNECTION DATA</tspan><tspan x="148.5" y="0.8em" text-decoration="underline">138</tspan></text></g></g></g><g><path stroke="black" stroke-dasharray="5,5" d="M 325 480 C 329.6 475.2 334.1 470.4 325 472 C 315.9 473.6 293.1 481.8 290 487 C 286.9 492.2 303.4 494.6 320 497" fill="none"/><path fill="black" stroke="black" d="" transform="translate(325,480) scale(1,1) rotate(-90)"/><path fill="black" stroke="black" d="M 8 0 L 0 4 L 8 8 z" transform="translate(326.8,502.8) scale(1,1) rotate(-162.5)"/><g><g label-idx="0" cursor="move" transform="translate(297.9, 481.4)"><rect fill="white" rx="3" ry="3" x="0" y="0" width="0" height="0"/><text text-anchor="middle" font-size="14pt" font-family="OpenSansCondensedLight" y="0.8em" display="none" xml:space="preserve" transform="translate(0,0)"/></g></g></g><g><path stroke="black" stroke-dasharray="5,5" d="M 328 522 53 522" fill="none"/><path fill="black" stroke="black" d="" transform="translate(328,522) scale(1,1) rotate(-180)"/><path fill="black" stroke="black" d="M 8 0 L 0 4 L 8 8 z" transform="translate(45,518) scale(1,1) rotate(0)"/><g><g label-idx="0" cursor="move" transform="translate(190.5, 522)"><rect fill="white" rx="3" ry="3" x="-115.1" y="-13.1" width="230.2" height="22"/><text text-anchor="start" font-size="14pt" font-family="OpenSansCondensedLight" y="0.8em" display="null" xml:space="preserve" transform="translate(0,-11)"><tspan x="-105.8" y="0.8em">CONNECTION DATA</tspan><tspan x="77.8" y="0.8em" text-decoration="underline">140</tspan></text></g></g></g><g><path stroke="black" stroke-dasharray="5,5" d="M 41 550 317 550" fill="none"/><path fill="black" stroke="black" d="" transform="translate(41,550) scale(1,1) rotate(0)"/><path fill="black" stroke="black" d="M 8 0 L 0 4 L 8 8 z" transform="translate(325,554) scale(1,1) rotate(-180)"/><g><g label-idx="0" cursor="move" transform="translate(179, 550)"><rect fill="white" rx="3" ry="3" x="-47.7" y="-13.1" width="95.4" height="22"/><text text-anchor="start" font-size="14pt" font-family="OpenSansCondensedLight" y="0.8em" display="null" xml:space="preserve" transform="translate(0,-11)"><tspan x="-38.4" y="0.8em">ACK</tspan><tspan x="10.4" y="0.8em" text-decoration="underline">142</tspan></text></g></g></g><g><path stroke="black" stroke-dasharray="5,5" d="M 329 564 597 564" fill="none"/><path fill="black" stroke="black" d="" transform="translate(329,564) scale(1,1) rotate(0)"/><path fill="black" stroke="black" d="M 8 0 L 0 4 L 8 8 z" transform="translate(605,568) scale(1,1) rotate(-180)"/><g><g label-idx="0" cursor="move" transform="translate(463, 564)"><rect fill="white" rx="3" ry="3" x="-47.7" y="-13.1" width="95.4" height="22"/><text text-anchor="start" font-size="14pt" font-family="OpenSansCondensedLight" y="0.8em" display="null" xml:space="preserve" transform="translate(0,-11)"><tspan x="-38.4" y="0.8em">ACK</tspan><tspan x="10.4" y="0.8em" text-decoration="underline">144</tspan></text></g></g></g><g><path stroke="black" stroke-dasharray="5,5" d="M 49 602 601 602" fill="none"/><path fill="black" stroke="black" d="M 8 0 L 0 4 L 8 8 z" transform="translate(41,598) scale(1,1) rotate(0)"/><path fill="black" stroke="black" d="M 8 0 L 0 4 L 8 8 z" transform="translate(609,606) scale(1,1) rotate(-180)"/><g><g label-idx="0" cursor="move" transform="translate(325, 602)"><rect fill="white" rx="3" ry="3" x="-142" y="-13.1" width="284" height="22"/><text text-anchor="start" font-size="14pt" font-family="OpenSansCondensedLight" y="0.8em" display="null" xml:space="preserve" transform="translate(0,-11)"><tspan x="-132.7" y="0.8em">DIRECT P2P CONNECTION</tspan><tspan x="104.7" y="0.8em" text-decoration="underline">146</tspan></text></g></g></g></g><defs/></svg>